<?xml version="1.0" standalone="no"?>
<!DOCTYPE svg PUBLIC "-//W3C//DTD SVG 1.1//EN" "http://www.w3.org/Graphics/SVG/1.1/DTD/svg11.dtd" >
<svg xmlns="http://www.w3.org/2000/svg">
<metadata>
This is a custom SVG webfont generated by Font Squirrel.
Copyright   : claudeserieuxgmailcom
</metadata>
<defs>
<font id="Embrionic85Swash" horiz-adv-x="1019" >
<font-face units-per-em="2048" ascent="1434" descent="-614" />
<missing-glyph horiz-adv-x="655" />
<glyph unicode=" "  horiz-adv-x="655" />
<glyph unicode="&#x09;" horiz-adv-x="655" />
<glyph unicode="&#xa0;" horiz-adv-x="655" />
<glyph unicode="!" horiz-adv-x="491" d="M61 1040q0 78 53.5 131.5t131.5 53.5t131 -53.5t53 -131.5q0 -45 -12 -214t-25 -314l-10 -147h-274q-48 573 -48 675zM74 172q0 70 51 121t120.5 51t121 -51t51.5 -121t-51.5 -121t-121 -51t-120.5 51t-51 121z" />
<glyph unicode="&#x22;" horiz-adv-x="864" d="M139 983v242h254v-242l-78 -233h-100zM471 983v242h254v-242l-78 -233h-98z" />
<glyph unicode="#" horiz-adv-x="983" d="M57 350v154h176l41 172h-153v155h182l62 279h172l-64 -279h158l61 279h168l-65 -279h131v-155h-158l-37 -172h150v-154h-189l-51 -239h-166l51 239h-161l-50 -239h-168l50 239h-140zM399 502h162l41 174h-164z" />
<glyph unicode="$" horiz-adv-x="696" d="M47 809q0 209 205 305v131h190v-86q6 0 19.5 1t19.5 1q82 0 144 -16v-246h-78q-53 0 -97 -35t-44 -75.5t24.5 -79.5t59 -72t69.5 -70t59.5 -89t24.5 -113q0 -227 -197 -318v-133h-190v88q-18 -2 -53 -2h-148v262q51 0 82 2t70 11.5t58.5 33t19.5 60.5q0 33 -37 79t-82 89 t-82 116.5t-37 155.5z" />
<glyph unicode="%" horiz-adv-x="1044" d="M49 0l813 1151h135l-813 -1151h-135zM84 868.5q0 112.5 61.5 199.5t162 87t161.5 -87t61 -199.5t-61 -199.5t-161.5 -87t-162 87t-61.5 199.5zM236 868.5q0 -135.5 71.5 -135.5t71.5 135.5t-71.5 135.5t-71.5 -135.5zM510 286.5q0 112.5 61.5 199.5t162 87t161.5 -87 t61 -199.5t-61 -199.5t-161.5 -87t-162 87t-61.5 199.5zM662 287q0 -135 71.5 -135t71.5 135t-71.5 135t-71.5 -135z" />
<glyph unicode="&#x26;" horiz-adv-x="1925" d="M41 242q0 387 321 485q-109 98 -108 223q0 143 116.5 234.5t272.5 91.5q158 0 277.5 -85t119.5 -224q0 -78 -45 -136h-311q6 12 16.5 29t16.5 30t6 30q0 23 -17.5 37t-41.5 14q-31 0 -50.5 -23.5t-19.5 -54.5q0 -74 62.5 -100.5t181.5 -28.5v-211q-168 0 -265.5 -76 t-97.5 -211q0 -104 79 -176t187 -72q72 0 126.5 37t54.5 101q0 25 -20.5 42t-47.5 17q-23 0 -38 -15.5t-15 -35.5q0 -27 30 -53h-253q-61 84 -62 147q0 115 86 192.5t205 77.5q94 0 198.5 -42t179.5 -91t156.5 -91t135.5 -42q45 0 79.5 30t34.5 73q0 23 -17.5 38t-41.5 15 q-20 0 -36.5 -9.5t-16.5 -23.5v-29h-215q-43 55 -43 103q0 111 88 181.5t207 70.5q152 0 256 -112t104 -267q0 -145 -112.5 -245.5t-264.5 -100.5q-127 0 -303 90v-8q2 -8 3 -19.5t1 -19.5q0 -129 -154.5 -233.5t-330.5 -104.5q-262 0 -468 162t-206 389z" />
<glyph unicode="'" horiz-adv-x="389" d="M68 983v242h254v-242l-78 -233h-99z" />
<glyph unicode="(" horiz-adv-x="753" d="M41 565q0 135 45 265.5t95 212t143 204.5h354q-283 -301 -283 -682q0 -125 38 -232.5t84 -177t149 -198.5h-355q-270 334 -270 608z" />
<glyph unicode=")" horiz-adv-x="753" d="M76 1247h354q92 -123 142.5 -204.5t95.5 -212t45 -265.5q0 -274 -271 -608h-354q102 129 148.5 198.5t84 177t37.5 232.5q1 381 -282 682z" />
<glyph unicode="*" horiz-adv-x="581" d="M72 690q0 66 92 66h88q-16 -18 -34.5 -55t-36 -57.5t-46.5 -20.5q-27 0 -45 19t-18 48zM72 854q0 23 15 45.5t48 22.5q27 0 45.5 -20.5t37 -57.5t34.5 -56h-90q-90 0 -90 66zM225 600q0 16 10.5 36.5t29 49.5t26.5 47q8 -18 26.5 -47t28.5 -49.5t10 -36.5 q0 -27 -18.5 -46t-47 -19t-47 19t-18.5 46zM225 944q0 27 18.5 46.5t47 19.5t47 -19.5t18.5 -46.5q0 -16 -10 -36.5t-28.5 -49.5t-26.5 -47q-8 18 -26.5 47t-29 49.5t-10.5 36.5zM330 756h88q92 0 92 -66q0 -29 -19.5 -48t-44.5 -19q-29 0 -46 20.5t-35.5 57.5t-34.5 55z M330 788q16 18 34.5 55.5t37 58t45 20.5t45 -19.5t18.5 -48.5q0 -66 -90 -66h-90z" />
<glyph unicode="+" d="M90 362v246h297v297h246v-297h297v-246h-297v-296h-246v296h-297z" />
<glyph unicode="," horiz-adv-x="491" d="M74 172q0 70 51 121t120.5 51t121 -51t51.5 -121q0 -57 -24.5 -122.5t-94.5 -125t-168 -59.5l70 162q-127 36 -127 145z" />
<glyph unicode="-" horiz-adv-x="696" d="M154 319v246h389v-246h-389z" />
<glyph unicode="." horiz-adv-x="491" d="M74 172q0 70 51 121t120.5 51t121 -51t51.5 -121t-51.5 -121t-121 -51t-120.5 51t-51 121z" />
<glyph unicode="/" horiz-adv-x="876" d="M37 0l668 1151h135l-668 -1151h-135z" />
<glyph unicode="0" horiz-adv-x="1036" d="M53 589.5q0 151.5 53.5 286t162 223.5t249.5 89t250 -89t162 -223.5t53 -286t-53 -285.5t-162 -223t-250 -89t-249.5 89t-162 223t-53.5 285.5zM369 589.5q0 -282.5 149.5 -282.5t149.5 282.5t-149.5 282.5t-149.5 -282.5z" />
<glyph unicode="1" horiz-adv-x="651" d="M86 743v238l412 170v-1151h-320v780z" />
<glyph unicode="2" horiz-adv-x="1026" d="M47 0l535 674q35 35 34 84q0 45 -30.5 77.5t-73.5 32.5q-37 0 -63.5 -28.5t-26.5 -67.5q0 -37 27.5 -62.5t66.5 -25.5l39 8l-180 -231q-125 2 -215 94t-90 219q0 174 128 294t304 120q184 0 317 -122t133 -300q0 -80 -49 -180.5t-90 -154.5t-127 -157h277l-70 -274h-846z " />
<glyph unicode="3" horiz-adv-x="995" d="M45 303q0 106 68 195h362q-41 -29 -66.5 -68t-25.5 -68q0 -39 27.5 -65.5t66.5 -26.5q43 0 69.5 35t26.5 82q0 145 -245 145h-187l242 345h-256v274h770l-274 -412q131 -14 218 -116.5t87 -239.5q0 -180 -135.5 -304t-321.5 -124q-170 0 -298 96t-128 252z" />
<glyph unicode="4" horiz-adv-x="978" d="M35 215l180 936h346l-153 -666h116v381l320 312v-693h92v-270h-92v-215h-320v215h-489z" />
<glyph unicode="5" horiz-adv-x="974" d="M29 319q0 88 45 183h344q-63 -57 -64 -117q0 -41 30 -68.5t73 -27.5t71.5 31.5t28.5 74.5q0 66 -60.5 103t-138.5 37q-27 0 -288 -15l88 631h651v-274h-381l-6 -80q8 0 37.5 3t48.5 3q166 0 284.5 -117t118.5 -283q0 -186 -140 -314t-333 -128q-162 0 -285.5 106.5 t-123.5 251.5z" />
<glyph unicode="6" horiz-adv-x="1032" d="M47 406q0 96 45 200.5t130 212t146.5 174t153.5 158.5h422l-51 -53q-49 -55 -106.5 -116.5t-130 -147.5t-129 -161t-96.5 -146.5t-40 -112.5q0 -47 35 -81t82 -34q41 0 70.5 28.5t29.5 69.5q0 39 -28.5 68t-69.5 29q-27 0 -70 -15l181 271q160 0 257 -102.5t97 -252.5 q0 -184 -135 -314t-322 -130q-193 0 -332 133.5t-139 321.5z" />
<glyph unicode="7" horiz-adv-x="1073" d="M41 0l479 879h-348v272h868l-634 -1151h-365z" />
<glyph unicode="8" horiz-adv-x="1007" d="M55 311q0 164 158 283q-63 63 -96 118.5t-33 129.5q0 152 126 245t294 93t294 -93.5t126 -244.5q0 -123 -129 -248q68 -41 112.5 -117t44.5 -166q0 -160 -135 -256t-313 -96t-313.5 96t-135.5 256zM399 358q0 -39 32 -68.5t73 -29.5t72.5 29.5t31.5 68.5t-31.5 69 t-72.5 30t-73 -30t-32 -69zM406 809q0 -39 28.5 -68.5t69.5 -29.5t69.5 29.5t28.5 68.5t-28.5 68.5t-69.5 29.5t-69.5 -29.5t-28.5 -68.5z" />
<glyph unicode="9" horiz-adv-x="1013" d="M47 756q0 182 133 311t320 129q188 0 322 -131t134 -320q0 -96 -45 -200.5t-130 -212t-146.5 -174t-153.5 -158.5h-413q2 2 39.5 42t83 90t105.5 118.5t114.5 137.5t101.5 134.5t75.5 122.5t28.5 92q0 47 -35.5 81t-84.5 34q-41 0 -71 -28.5t-30 -69.5q0 -39 29 -68 t70 -29q27 0 69 15l-180 -271q-156 0 -246 102.5t-90 252.5z" />
<glyph unicode=":" horiz-adv-x="491" d="M74 172q0 70 51 121t120.5 51t121 -51t51.5 -121t-51.5 -121t-121 -51t-120.5 51t-51 121zM74 604q0 72 51 122t120.5 50t121 -50t51.5 -122t-51.5 -122t-121 -50t-120.5 50t-51 122z" />
<glyph unicode=";" horiz-adv-x="491" d="M74 172q0 70 51 121t120.5 51t121 -51t51.5 -121q0 -57 -24.5 -122.5t-94.5 -125t-168 -59.5l70 162q-127 36 -127 145zM74 604q0 72 51 122t120.5 50t121 -50t51.5 -122t-51.5 -122t-121 -50t-120.5 50t-51 122z" />
<glyph unicode="&#x3c;" horiz-adv-x="622" d="M78 504l188 289h266l-176 -289l176 -289h-266z" />
<glyph unicode="=" horiz-adv-x="876" d="M98 225v199h680v-199h-680zM98 547v198h680v-198h-680z" />
<glyph unicode="&#x3e;" horiz-adv-x="622" d="M78 215l176 289l-176 289h266l188 -289l-188 -289h-266z" />
<glyph unicode="?" horiz-adv-x="899" d="M41 862q0 152 114.5 246t286.5 94q166 0 291 -92t125 -242q0 -57 -30.5 -109t-63.5 -83t-88 -72q-6 -6 -24.5 -18.5t-26 -18.5t-21.5 -17t-21 -19l-18 -17q-10 -10 -15 -18.5t-11.5 -17.5t-8.5 -18t-2 -20q0 -29 27 -63h-324q-55 39 -55 104q0 111 143 201 q12 8 51.5 30.5t54.5 34t37.5 30t32 36.5t9.5 39q0 33 -22.5 54.5t-55.5 21.5q-31 0 -54.5 -17.5t-23.5 -46.5q0 -33 29 -56.5t55 -27.5l-233 -147q-66 33 -112 93t-46 136zM219 172q0 70 50 121t122 51t122 -51t50 -121t-50 -121t-122 -51t-122 51t-50 121z" />
<glyph unicode="@" horiz-adv-x="1261" d="M92 651q0 233 154.5 387t412.5 154q197 0 353.5 -131t156.5 -297q0 -170 -107.5 -273.5t-266.5 -103.5q-111 0 -196 78t-85 174q0 80 51 149h213q-41 -47 -41 -88q0 -29 18.5 -48t45.5 -19q35 0 56.5 28.5t21.5 67.5q0 66 -55.5 105.5t-129.5 39.5q-109 0 -173 -68.5 t-64 -170.5q0 -135 118.5 -221t258.5 -86l292 14v-305q-197 -14 -213 -14q-379 0 -600 164.5t-221 463.5z" />
<glyph unicode="A" horiz-adv-x="1155" d="M29 0l311 1151h475l311 -1151h-368l-47 219h-267l-47 -219h-368zM502 500h151l-75 356z" />
<glyph unicode="B" horiz-adv-x="1056" d="M66 0v1151h593q131 0 233.5 -84t102.5 -211q0 -180 -164 -262q197 -78 197 -266q0 -135 -101.5 -231.5t-232.5 -96.5h-628zM401 260h140q49 0 82.5 28.5t33.5 74t-33.5 74t-82.5 28.5h-140v-205zM401 696h127q49 0 83 28t34 71t-33.5 70.5t-83.5 27.5h-127v-197z" />
<glyph unicode="C" horiz-adv-x="1204" d="M43 571.5q0 247.5 159.5 430t395.5 182.5q219 0 377 -158t182 -383h-352q-14 102 -65.5 170t-141.5 68q-104 0 -157.5 -92.5t-53.5 -217.5q0 -123 54.5 -216t156.5 -93q100 0 154.5 93.5t54.5 215.5h354q0 -248 -162.5 -430t-400.5 -182q-236 0 -395.5 182.5t-159.5 430z " />
<glyph unicode="D" horiz-adv-x="1056" d="M45 0v1151h479q225 0 367.5 -169t142.5 -406.5t-142 -406.5t-368 -169h-479zM381 281q147 0 227 67.5t80 227t-79 226t-228 66.5v-587z" />
<glyph unicode="E" horiz-adv-x="856" d="M66 0v1151h673l45 -274h-391v-160h314v-271h-314v-163h422l-67 -283h-682z" />
<glyph unicode="F" horiz-adv-x="794" d="M66 0v1151h647l45 -274h-357v-207h267v-271h-267v-399h-335z" />
<glyph unicode="G" horiz-adv-x="1216" d="M43 575.5q0 247.5 159.5 430t395.5 182.5t383 -127t176 -328h-356q-57 162 -176 162q-104 0 -164 -97.5t-60 -222.5q0 -127 58.5 -223t165.5 -96q74 0 125 51t51 127h-307v250h671q8 -72 9 -109q0 -260 -157 -436t-433 -176q-233 0 -387 182.5t-154 430z" />
<glyph unicode="H" horiz-adv-x="1007" d="M57 0v1151h336v-444h221v444h336v-1151h-336v432h-221v-432h-336z" />
<glyph unicode="I" horiz-adv-x="466" d="M66 0v1151h335v-1151h-335z" />
<glyph unicode="J" horiz-adv-x="624" d="M31 6v328q45 -35 100 -35q39 0 65.5 24.5t26.5 63.5v764h336v-764q0 -203 -102.5 -308.5t-274.5 -105.5q-77 0 -151 33z" />
<glyph unicode="K" horiz-adv-x="1052" d="M59 0v1151h334v-516l219 516h349l-246 -506l319 -645h-364l-277 557v-557h-334z" />
<glyph unicode="L" horiz-adv-x="718" d="M66 0v1151h327v-868h303l-67 -283h-563z" />
<glyph unicode="M" horiz-adv-x="1388" d="M66 0v1151h477l151 -551l152 551h477v-1151h-324v684l-184 -684h-221l-205 684v-684h-323z" />
<glyph unicode="N" horiz-adv-x="1058" d="M66 0v1151h335l265 -551v551h327v-1151h-334l-266 541v-541h-327z" />
<glyph unicode="O" horiz-adv-x="1191" d="M41 571.5q0 247.5 159.5 430t395 182.5t395.5 -182.5t160 -430t-160 -430t-395.5 -182.5t-395 182.5t-159.5 430zM373 571.5q0 -122.5 59.5 -216t163.5 -93.5t163.5 93.5t59.5 216t-59.5 216t-163.5 93.5t-163.5 -93.5t-59.5 -216z" />
<glyph unicode="P" horiz-adv-x="1007" d="M66 0v1151h542q143 0 254 -118t111 -273q0 -139 -81 -227.5t-193.5 -119t-258.5 -30.5l-39 231v-614h-335zM397 641h99q49 0 82.5 35t33.5 84q0 51 -33.5 89t-82.5 38h-99v-246z" />
<glyph unicode="Q" horiz-adv-x="1146" d="M45 586q0 266 147.5 430t401.5 164q221 0 364.5 -159t143.5 -382q0 -158 -119 -328h-348q131 127 131 324q0 102 -45 178t-135 76q-88 0 -138.5 -90t-50.5 -205q0 -125 64.5 -219t173.5 -101h442v-274h-340q-367 0 -529.5 152.5t-162.5 433.5z" />
<glyph unicode="R" horiz-adv-x="1050" d="M66 0v1151h542q145 0 253 -95t108 -235q0 -104 -61.5 -190t-145.5 -111q66 -14 118 -97t73.5 -151.5t60.5 -218.5q10 -35 14 -53h-352q-12 39 -29.5 112.5t-30 116.5t-35 92.5t-55 73t-77.5 23.5h-48v-418h-335zM397 651h99q49 0 82.5 35t33.5 84q0 51 -33.5 89t-82.5 38 h-99v-246z" />
<glyph unicode="S" horiz-adv-x="731" d="M66 823q0 160 123.5 257.5t308.5 97.5q82 0 143 -17v-262q-59 6 -104 6q-43 0 -74 -28.5t-31 -69.5q0 -49 37 -101.5t80 -92.5t80 -106.5t37 -141.5q0 -176 -138.5 -270.5t-308.5 -94.5h-147v262q236 0 235 125q0 31 -38 74t-83 83t-82.5 115.5t-37.5 163.5z" />
<glyph unicode="T" horiz-adv-x="872" d="M43 877l45 274h696l45 -274h-221v-877h-336v877h-229z" />
<glyph unicode="U" d="M66 403v748h327v-754q0 -47 35 -81.5t82 -34.5t82 34.5t35 81.5v754h327v-748q0 -184 -130 -314t-314 -130t-314 130t-130 314z" />
<glyph unicode="V" horiz-adv-x="1003" d="M18 1151h318l166 -619l166 619h317l-307 -1151h-352z" />
<glyph unicode="W" horiz-adv-x="1556" d="M29 1151h336l118 -619l123 619h393l119 -619l123 619h283l-201 -1151h-412l-123 573l-100 -573h-412z" />
<glyph unicode="X" horiz-adv-x="1110" d="M29 0l293 631l-281 520h369l151 -299l107 299h356l-266 -520l323 -631h-389l-164 340l-135 -340h-364z" />
<glyph unicode="Y" horiz-adv-x="1122" d="M27 1151h385l176 -381l164 381h348l-336 -725v-426h-328v426z" />
<glyph unicode="Z" horiz-adv-x="901" d="M37 0l356 881h-352v270h831l-344 -864h312v-287h-803z" />
<glyph unicode="[" horiz-adv-x="1011" d="M41 485q0 199 66.5 390.5t194.5 321.5t284 130q27 0 46 -2t35.5 -7t25.5 -8t27.5 -11.5t27.5 -12.5l-7 -258q-45 33 -94 33q-66 0 -120 -57.5t-85.5 -149.5t-49 -196.5t-17.5 -204.5q0 -90 23.5 -171t80 -138.5t135.5 -57.5q47 0 83 29.5t36 74.5q0 16 -5 41t-7 33 l266 -160q-25 -150 -115 -239.5t-225 -89.5q-264 0 -435 212.5t-171 497.5z" />
<glyph unicode="\" horiz-adv-x="876" d="M37 1151h135l668 -1151h-135z" />
<glyph unicode="]" horiz-adv-x="1011" d="M41 104l266 160q-2 -8 -7 -32.5t-5 -41.5q0 -45 36 -74.5t83 -29.5q80 0 136 57.5t79.5 138t23.5 171.5q0 100 -17.5 204.5t-49 196.5t-86 149.5t-119.5 57.5q-49 0 -94 -33l-6 258q8 4 26.5 12.5t27.5 11.5t25.5 8t36 7t45.5 2q156 0 284 -130t194.5 -321.5t66.5 -390.5 q0 -285 -171 -497.5t-435 -212.5q-135 0 -225 89.5t-115 239.5z" />
<glyph unicode="^" horiz-adv-x="716" d="M61 885l301 266l302 -266h-244l-58 49l-57 -49h-244z" />
<glyph unicode="_" horiz-adv-x="1024" d="M0 -154h1024v-102h-1024v102z" />
<glyph unicode="`" horiz-adv-x="446" d="M49 1151h275l73 -229h-200z" />
<glyph unicode="a" horiz-adv-x="970" d="M18 383q0 178 126 304t305 126h440v-813h-316v197l-41 -191q-55 -41 -151 -41q-156 0 -259.5 125t-103.5 293zM350 383q0 -68 39 -120t100 -52q49 0 84 41v303h-84q-63 0 -101 -51t-38 -121z" />
<glyph unicode="b" horiz-adv-x="993" d="M68 319v832h313v-610l55 250q59 49 154 49q154 0 257 -120t103 -280q0 -197 -141 -333t-338 -136q-164 0 -283.5 96t-119.5 252zM381 309q33 -80 111 -80q61 0 100 52.5t39 120t-39 119.5t-100 52q-76 0 -111 -77v-187z" />
<glyph unicode="c" horiz-adv-x="987" d="M41 407.5q0 186.5 137 315.5t326 129q174 0 301 -119t139 -291h-321q-6 57 -37 97.5t-82 40.5q-61 0 -100 -52.5t-39 -120t38.5 -119.5t100.5 -52q55 0 87 48t34 113h321q-4 -180 -133 -307t-309 -127q-188 0 -325.5 129t-137.5 315.5z" />
<glyph unicode="d" horiz-adv-x="993" d="M41 440q0 160 99.5 280t250.5 120q109 0 154 -37l45 -225v573h313v-1151h-545q-117 0 -217 142t-100 298zM365 407.5q0 -67.5 38.5 -119.5t100.5 -52h86v284q0 14 -26.5 37t-59.5 23q-61 0 -100 -52.5t-39 -120z" />
<glyph unicode="e" horiz-adv-x="921" d="M41 403q0 182 128 310.5t308 128.5q160 0 280 -93.5t120 -240.5q0 -98 -82 -217h-336q94 78 94 174q0 41 -24.5 72.5t-63.5 31.5q-49 0 -76 -46t-27 -105q0 -63 41 -109.5t101 -46.5h358v-262q-86 -18 -266 -18q-274 0 -414.5 108t-140.5 313z" />
<glyph unicode="f" horiz-adv-x="561" d="M41 0v852q0 84 27.5 157.5t106.5 130t198 56.5q66 0 147 -31v-237q-43 25 -77.5 24.5t-58.5 -24t-24 -58.5v-57h148v-227h-148v-586h-319z" />
<glyph unicode="g" horiz-adv-x="995" d="M31 422q0 166 121.5 278.5t293.5 112.5h494v-248h-264l213 -28q51 -82 51 -152q0 -170 -109.5 -273.5t-310.5 -103.5h-49q-20 0 -33.5 -13t-13.5 -33.5t13.5 -34t33.5 -13.5h469v-270h-625q-98 0 -172.5 76.5t-74.5 181.5q0 141 125 227q-4 4 -21.5 19.5t-23 20.5 t-21.5 20.5t-22.5 23.5t-18.5 25.5t-18.5 30t-14.5 31.5t-12 36.5t-7 40t-3 45.5zM385 405.5q0 -63.5 30.5 -111.5t86 -48t86 48t30.5 111.5t-30.5 111.5t-86 48t-86 -48t-30.5 -111.5z" />
<glyph unicode="h" horiz-adv-x="966" d="M70 0v1151h319v-571l39 233q66 23 156 23q137 0 225 -79t88 -194v-563h-319v471q0 39 -28 66.5t-67 27.5t-66.5 -27.5t-27.5 -66.5v-471h-319z" />
<glyph unicode="i" horiz-adv-x="483" d="M66 1015.5q0 71.5 52 124t123.5 52.5t124 -52.5t52.5 -124t-52.5 -123.5t-124 -52t-123.5 52t-52 123.5zM82 0v811h319v-811h-319z" />
<glyph unicode="j" horiz-adv-x="565" d="M18 -61q35 -23 72 -23q31 0 50.5 26.5t19.5 57.5v811h319v-811q0 -137 -65.5 -232.5t-216.5 -95.5q-106 0 -179 41v226zM143 1015.5q0 71.5 52.5 124t124 52.5t124 -52.5t52.5 -124t-52.5 -123.5t-124 -52t-124 52t-52.5 123.5z" />
<glyph unicode="k" horiz-adv-x="958" d="M86 0v1151h320v-700l139 362h332l-170 -369l233 -444h-358l-176 391v-391h-320z" />
<glyph unicode="l" horiz-adv-x="471" d="M76 0v1151h319v-1151h-319z" />
<glyph unicode="m" horiz-adv-x="1464" d="M82 0v813h276l25 -233l23 227q82 29 180 29q111 0 188.5 -50.5t106.5 -134.5v152q84 33 188 33q137 0 225 -79t88 -194v-563h-315v479q0 35 -25.5 60.5t-60.5 25.5t-60.5 -25.5t-25.5 -60.5v-479h-315v471q0 39 -28 66.5t-67 27.5q-37 0 -62.5 -27.5t-25.5 -66.5v-471 h-315z" />
<glyph unicode="n" horiz-adv-x="991" d="M82 0v813h287l24 -233l23 227q82 29 180 29q137 0 225 -79t88 -194v-563h-319v471q0 39 -27.5 66.5t-66.5 27.5t-67 -27.5t-28 -66.5v-471h-319z" />
<glyph unicode="o" d="M47 407.5q0 186.5 137.5 315.5t325.5 129t325.5 -129t137.5 -315.5t-137.5 -315.5t-325.5 -129t-325.5 129t-137.5 315.5zM371 407.5q0 -67.5 39 -119.5t100 -52t100 52t39 119.5t-39 120t-100 52.5t-100 -52.5t-39 -120z" />
<glyph unicode="p" horiz-adv-x="968" d="M66 -338v1151h518q127 0 234.5 -142.5t107.5 -297.5q0 -160 -98.5 -280t-249.5 -120q-109 0 -154 37l-45 226v-574h-313zM379 293q0 -14 26.5 -37t59.5 -23q61 0 100 52.5t39 120t-39 120t-100 52.5h-86v-285z" />
<glyph unicode="q" horiz-adv-x="985" d="M41 395q0 190 131 315.5t338 125.5q184 0 293.5 -93.5t109.5 -255.5v-831h-313v610l-55 -250q-59 -49 -154 -49q-156 0 -253 129t-97 299zM367 405.5q0 -67.5 32.5 -120t89.5 -52.5q76 0 111 78v187q-33 80 -111 80q-57 0 -89.5 -52.5t-32.5 -120z" />
<glyph unicode="r" horiz-adv-x="636" d="M82 0v813h274l41 -254v221q66 41 133 41q23 0 76 -14v-254q-106 0 -156.5 -35t-52.5 -125v-393h-315z" />
<glyph unicode="s" horiz-adv-x="600" d="M49 565q0 117 92 195t215 78q94 0 181 -35v-244q-80 31 -113 31q-25 0 -44.5 -12.5t-19.5 -34.5q0 -18 30 -45t66 -53.5t65.5 -77t29.5 -111.5q0 -123 -100.5 -201t-233.5 -78q-80 0 -166 23v256q74 -27 133 -27q25 0 43.5 15.5t18.5 40.5q0 18 -49.5 55t-98.5 95 t-49 130z" />
<glyph unicode="t" horiz-adv-x="630" d="M43 578v235h84v215l315 82v-297h125v-235h-125v-228q0 -39 31 -62.5t59 -23.5q12 0 30 3t26 3v-250q-70 -31 -176 -30q-111 0 -198 63.5t-87 161.5v363h-84z" />
<glyph unicode="u" horiz-adv-x="966" d="M70 250v563h319v-471q0 -39 27.5 -66.5t66.5 -27.5t67 27.5t28 66.5v471h319v-813h-293l-18 233l-29 -227q-82 -29 -174 -29q-137 0 -225 79t-88 194z" />
<glyph unicode="v" horiz-adv-x="884" d="M29 813h329l84 -412l84 412h330l-250 -813h-327z" />
<glyph unicode="w" horiz-adv-x="1345" d="M29 813h329l84 -412l84 412h293l84 -412l84 412h330l-250 -813h-305l-88 387l-90 -387h-305z" />
<glyph unicode="x" horiz-adv-x="962" d="M29 0l225 422l-197 391h320l102 -195l94 195h336l-209 -391l234 -422h-344l-111 219l-102 -219h-348z" />
<glyph unicode="y" horiz-adv-x="929" d="M29 813h331l123 -405l97 405h321l-272 -782q-25 -70 -39.5 -107t-48 -97t-67.5 -92t-89 -57.5t-121 -25.5h-131v272h49q49 0 83 39t34 90q0 35 -20 92z" />
<glyph unicode="z" horiz-adv-x="741" d="M27 0l249 565h-180l-8 248h623l-248 -547h229v-266h-665z" />
<glyph unicode="{" horiz-adv-x="1011" d="M41 485q0 199 66.5 390.5t194.5 321.5t284 130q27 0 46 -2t35.5 -7t25.5 -8t27.5 -11.5t27.5 -12.5l-7 -258q-45 33 -94 33q-66 0 -120 -57.5t-85.5 -149.5t-49 -196.5t-17.5 -204.5q0 -90 23.5 -171t80 -138.5t135.5 -57.5q47 0 83 29.5t36 74.5q0 16 -5 41t-7 33 l266 -160q-25 -150 -115 -239.5t-225 -89.5q-264 0 -435 212.5t-171 497.5z" />
<glyph unicode="|" horiz-adv-x="454" d="M102 -612v2044h250v-2044h-250z" />
<glyph unicode="}" horiz-adv-x="1011" d="M41 104l266 160q-2 -8 -7 -32.5t-5 -41.5q0 -45 36 -74.5t83 -29.5q80 0 136 57.5t79.5 138t23.5 171.5q0 100 -17.5 204.5t-49 196.5t-86 149.5t-119.5 57.5q-49 0 -94 -33l-6 258q8 4 26.5 12.5t27.5 11.5t25.5 8t36 7t45.5 2q156 0 284 -130t194.5 -321.5t66.5 -390.5 q0 -285 -171 -497.5t-435 -212.5q-135 0 -225 89.5t-115 239.5z" />
<glyph unicode="~" horiz-adv-x="796" d="M135 379q0 82 47 147.5t133 65.5q29 0 72 -20.5t72 -20.5q41 0 43 20h160q0 -78 -43.5 -141t-114.5 -63q-37 0 -95.5 20.5t-68.5 20.5q-41 0 -41 -29h-164z" />
<glyph unicode="&#xa1;" horiz-adv-x="491" d="M61 -188q0 45 12.5 214t24.5 314l11 147h274q47 -573 47 -675q0 -78 -53 -131.5t-131 -53.5t-131.5 53.5t-53.5 131.5zM74 680q0 70 51 121t120.5 51t121 -51t51.5 -121t-51.5 -121t-121 -51t-120.5 51t-51 121z" />
<glyph unicode="&#xa2;" horiz-adv-x="999" d="M47 575.5q0 163.5 109.5 286.5t271.5 152v137h178v-141q141 -31 237.5 -141.5t106.5 -258.5h-321q-6 57 -37 97.5t-82 40.5q-61 0 -100 -52.5t-39 -120t39 -120t100 -52.5q55 0 87 48.5t34 113.5h321q-2 -154 -100 -272.5t-246 -151.5v-141h-178v137q-162 29 -271.5 152 t-109.5 286.5z" />
<glyph unicode="&#xa3;" horiz-adv-x="948" d="M53 0v299q37 8 59.5 16.5t41 27.5t18.5 46l-8 35h-109v266h60q-61 109 -62 189q0 152 126 249t292 97t292 -96.5t126 -247.5q0 -94 -35 -168h-358q61 66 61 114q0 35 -23.5 58.5t-56.5 23.5q-35 0 -58.5 -24.5t-23.5 -57.5q0 -57 56 -137h348v-266h-289q16 -31 16 -51 q0 -16 -3 -39t-3 -31h320v-303h-787z" />
<glyph unicode="&#xa8;" horiz-adv-x="608" d="M41 1042q0 45 31.5 77t77 32t77 -32t31.5 -77t-31.5 -76.5t-77 -31.5t-77 31.5t-31.5 76.5zM350 1042q0 45 32 77t77 32t76.5 -32t31.5 -77t-31.5 -76.5t-76.5 -31.5t-77 31.5t-32 76.5z" />
<glyph unicode="&#xaa;" horiz-adv-x="970" d="M18 383q0 178 126 304t305 126h440v-813h-316v197l-41 -191q-55 -41 -151 -41q-156 0 -259.5 125t-103.5 293zM350 383q0 -68 39 -120t100 -52q49 0 84 41v303h-84q-63 0 -101 -51t-38 -121z" />
<glyph unicode="&#xab;" horiz-adv-x="1044" d="M78 504l188 289h266l-176 -289l176 -289h-266zM500 504l188 289h266l-176 -289l176 -289h-266z" />
<glyph unicode="&#xad;" horiz-adv-x="696" d="M154 319v246h389v-246h-389z" />
<glyph unicode="&#xb2;" horiz-adv-x="1026" d="M47 0l535 674q35 35 34 84q0 45 -30.5 77.5t-73.5 32.5q-37 0 -63.5 -28.5t-26.5 -67.5q0 -37 27.5 -62.5t66.5 -25.5l39 8l-180 -231q-125 2 -215 94t-90 219q0 174 128 294t304 120q184 0 317 -122t133 -300q0 -80 -49 -180.5t-90 -154.5t-127 -157h277l-70 -274h-846z " />
<glyph unicode="&#xb3;" horiz-adv-x="995" d="M45 303q0 106 68 195h362q-41 -29 -66.5 -68t-25.5 -68q0 -39 27.5 -65.5t66.5 -26.5q43 0 69.5 35t26.5 82q0 145 -245 145h-187l242 345h-256v274h770l-274 -412q131 -14 218 -116.5t87 -239.5q0 -180 -135.5 -304t-321.5 -124q-170 0 -298 96t-128 252z" />
<glyph unicode="&#xb4;" horiz-adv-x="446" d="M49 922l74 229h274l-147 -229h-201z" />
<glyph unicode="&#xb8;" horiz-adv-x="421" d="M47 -164q0 68 48 116t116 48t116 -48t48 -116q0 -39 -14.5 -85t-44 -94t-86 -80t-128.5 -32l66 154q-121 37 -121 137z" />
<glyph unicode="&#xb9;" horiz-adv-x="651" d="M86 743v238l412 170v-1151h-320v780z" />
<glyph unicode="&#xba;" d="M47 407.5q0 186.5 137.5 315.5t325.5 129t325.5 -129t137.5 -315.5t-137.5 -315.5t-325.5 -129t-325.5 129t-137.5 315.5zM371 407.5q0 -67.5 39 -119.5t100 -52t100 52t39 119.5t-39 120t-100 52.5t-100 -52.5t-39 -120z" />
<glyph unicode="&#xbb;" horiz-adv-x="1044" d="M78 215l176 289l-176 289h266l188 -289l-188 -289h-266zM500 215l176 289l-176 289h266l188 -289l-188 -289h-266z" />
<glyph unicode="&#xbf;" horiz-adv-x="899" d="M41 -14q0 57 30.5 109t63.5 83t88 72q6 6 24.5 18.5t26 18.5t21.5 17t21 19l18 17q10 10 15 18.5t11.5 17.5t8.5 18t2 20q0 29 -27 63h324q55 -39 55 -104q0 -111 -143 -201q-12 -8 -51.5 -30.5t-54.5 -34t-37.5 -30t-32 -36.5t-9.5 -39q0 -33 22.5 -54.5t55.5 -21.5 q31 0 54.5 17.5t23.5 46.5q0 33 -28.5 56.5t-55.5 27.5l233 147q66 -33 112 -93t46 -136q0 -152 -114.5 -246t-286.5 -94q-166 0 -291 92t-125 242zM336 682q0 72 51 122t121 50t121 -50t51 -122t-51 -122t-121 -50t-121 50t-51 122z" />
<glyph unicode="&#xc0;" horiz-adv-x="1155" d="M29 0l311 1151h475l311 -1151h-368l-47 219h-267l-47 -219h-368zM330 1536h274l74 -229h-201zM502 500h151l-75 356z" />
<glyph unicode="&#xc1;" horiz-adv-x="1155" d="M29 0l311 1151h475l311 -1151h-368l-47 219h-267l-47 -219h-368zM477 1307l74 229h274l-147 -229h-201zM502 500h151l-75 356z" />
<glyph unicode="&#xc2;" horiz-adv-x="1155" d="M29 0l311 1151h475l311 -1151h-368l-47 219h-267l-47 -219h-368zM276 1307l302 266l301 -266h-244l-57 49l-58 -49h-244zM502 500h151l-75 356z" />
<glyph unicode="&#xc3;" horiz-adv-x="1155" d="M29 0l311 1151h475l311 -1151h-368l-47 219h-267l-47 -219h-368zM315 1319q0 82 47.5 147.5t133.5 65.5q29 0 71.5 -20.5t71.5 -20.5q39 0 41 20h160q0 -78 -43 -141t-113 -63q-39 0 -97.5 20.5t-66.5 20.5q-41 0 -41 -29h-164zM502 500h151l-75 356z" />
<glyph unicode="&#xc4;" horiz-adv-x="1155" d="M29 0l311 1151h475l311 -1151h-368l-47 219h-267l-47 -219h-368zM315 1415q0 45 32 77t76 32t76.5 -32t32.5 -77t-32.5 -76.5t-76.5 -31.5t-76 31.5t-32 76.5zM502 500h151l-75 356zM623 1415q0 45 32.5 77t76.5 32t76 -32t32 -77t-32 -76.5t-76 -31.5t-76.5 31.5 t-32.5 76.5z" />
<glyph unicode="&#xc6;" horiz-adv-x="1361" d="M16 0l312 1151h917l45 -274h-391v-160h313v-271h-313v-163h422l-68 -283h-682v219h-147l-47 -219h-361zM481 500h90v352h-18z" />
<glyph unicode="&#xc7;" horiz-adv-x="1200" d="M41 571.5q0 247.5 159.5 430t395.5 182.5q219 0 376.5 -158t182.5 -383h-352q-14 102 -65.5 170t-141.5 68q-104 0 -157.5 -92.5t-53.5 -217.5q0 -123 54.5 -216t156.5 -93q100 0 154.5 93.5t54.5 215.5h354q0 -227 -140 -403t-353 -205q59 -8 100 -54t41 -108 q0 -39 -14.5 -85t-44 -94t-86 -79.5t-127.5 -31.5l65 153q-121 37 -121 137q0 55 33 98.5t86 59.5h-2q-236 0 -395.5 182.5t-159.5 430z" />
<glyph unicode="&#xc8;" horiz-adv-x="856" d="M66 0v1151h673l45 -274h-391v-160h314v-271h-314v-163h422l-67 -283h-682zM156 1536h274l74 -229h-201z" />
<glyph unicode="&#xc9;" horiz-adv-x="856" d="M66 0v1151h673l45 -274h-391v-160h314v-271h-314v-163h422l-67 -283h-682zM303 1307l74 229h274l-147 -229h-201z" />
<glyph unicode="&#xca;" horiz-adv-x="856" d="M66 0v1151h673l45 -274h-391v-160h314v-271h-314v-163h422l-67 -283h-682zM102 1307l299 266l304 -266h-246l-58 49l-57 -49h-242z" />
<glyph unicode="&#xcb;" horiz-adv-x="856" d="M66 0v1151h673l45 -274h-391v-160h314v-271h-314v-163h422l-67 -283h-682zM139 1415q0 45 32 77t77 32t76.5 -32t31.5 -77t-31.5 -76.5t-76.5 -31.5t-77 31.5t-32 76.5zM449 1415q0 45 31.5 77t76.5 32t77 -32t32 -77t-32 -76.5t-77 -31.5t-76.5 31.5t-31.5 76.5z" />
<glyph unicode="&#xcc;" horiz-adv-x="466" d="M-14 1536h274l74 -229h-201zM66 0v1151h335v-1151h-335z" />
<glyph unicode="&#xcd;" horiz-adv-x="466" d="M66 0v1151h335v-1151h-335zM133 1307l74 229h274l-147 -229h-201z" />
<glyph unicode="&#xce;" horiz-adv-x="466" d="M-68 1307l301 266l302 -266h-244l-58 49l-57 -49h-244zM66 0v1151h335v-1151h-335z" />
<glyph unicode="&#xcf;" horiz-adv-x="466" d="M-29 1415q0 45 32 77t76 32t76.5 -32t32.5 -77t-32.5 -76.5t-76.5 -31.5t-76 31.5t-32 76.5zM66 0v1151h335v-1151h-335zM279 1415q0 45 32.5 77t76.5 32t76 -32t32 -77t-32 -76.5t-76 -31.5t-76.5 31.5t-32.5 76.5z" />
<glyph unicode="&#xd1;" horiz-adv-x="1058" d="M66 0v1151h335l265 -551v551h327v-1151h-334l-266 541v-541h-327zM266 1319q0 82 47 147.5t133 65.5q29 0 72 -20.5t72 -20.5q41 0 43 20h160q0 -78 -43 -141t-115 -63q-37 0 -95.5 20.5t-68.5 20.5q-41 0 -41 -29h-164z" />
<glyph unicode="&#xd2;" horiz-adv-x="1191" d="M41 571.5q0 247.5 159.5 430t395 182.5t395.5 -182.5t160 -430t-160 -430t-395.5 -182.5t-395 182.5t-159.5 430zM348 1536h275l73 -229h-200zM373 571.5q0 -122.5 59.5 -216t163.5 -93.5t163.5 93.5t59.5 216t-59.5 216t-163.5 93.5t-163.5 -93.5t-59.5 -216z" />
<glyph unicode="&#xd3;" horiz-adv-x="1191" d="M41 571.5q0 247.5 159.5 430t395 182.5t395.5 -182.5t160 -430t-160 -430t-395.5 -182.5t-395 182.5t-159.5 430zM373 571.5q0 -122.5 59.5 -216t163.5 -93.5t163.5 93.5t59.5 216t-59.5 216t-163.5 93.5t-163.5 -93.5t-59.5 -216zM496 1307l73 229h275l-148 -229h-200z " />
<glyph unicode="&#xd4;" horiz-adv-x="1191" d="M41 571.5q0 247.5 159.5 430t395 182.5t395.5 -182.5t160 -430t-160 -430t-395.5 -182.5t-395 182.5t-159.5 430zM295 1307l301 266l301 -266h-244l-57 49l-57 -49h-244zM373 571.5q0 -122.5 59.5 -216t163.5 -93.5t163.5 93.5t59.5 216t-59.5 216t-163.5 93.5 t-163.5 -93.5t-59.5 -216z" />
<glyph unicode="&#xd5;" horiz-adv-x="1191" d="M41 571.5q0 247.5 159.5 430t395 182.5t395.5 -182.5t160 -430t-160 -430t-395.5 -182.5t-395 182.5t-159.5 430zM332 1319q0 82 48 147.5t132 65.5q29 0 72 -20.5t71 -20.5q41 0 45 20h160q0 -78 -44 -141t-116 -63q-37 0 -95 20.5t-68 20.5q-41 0 -41 -29h-164z M373 571.5q0 -122.5 59.5 -216t163.5 -93.5t163.5 93.5t59.5 216t-59.5 216t-163.5 93.5t-163.5 -93.5t-59.5 -216z" />
<glyph unicode="&#xd6;" horiz-adv-x="1191" d="M41 571.5q0 247.5 159.5 430t395 182.5t395.5 -182.5t160 -430t-160 -430t-395.5 -182.5t-395 182.5t-159.5 430zM332 1415q0 45 32.5 77t76.5 32t76 -32t32 -77t-32 -76.5t-76 -31.5t-76.5 31.5t-32.5 76.5zM373 571.5q0 -122.5 59.5 -216t163.5 -93.5t163.5 93.5 t59.5 216t-59.5 216t-163.5 93.5t-163.5 -93.5t-59.5 -216zM643 1415q0 45 32 77t76 32t76.5 -32t32.5 -77t-32.5 -76.5t-76.5 -31.5t-76 31.5t-32 76.5z" />
<glyph unicode="&#xd9;" d="M262 1536h275l73 -229h-200zM66 403v748h327v-754q0 -47 35 -81.5t82 -34.5t82 34.5t35 81.5v754h327v-748q0 -184 -130 -314t-314 -130t-314 130t-130 314z" />
<glyph unicode="&#xda;" d="M409 1307l74 229h274l-147 -229h-201zM66 403v748h327v-754q0 -47 35 -81.5t82 -34.5t82 34.5t35 81.5v754h327v-748q0 -184 -130 -314t-314 -130t-314 130t-130 314z" />
<glyph unicode="&#xdb;" d="M208 1307l301 266l302 -266h-244l-58 49l-57 -49h-244zM66 403v748h327v-754q0 -47 35 -81.5t82 -34.5t82 34.5t35 81.5v754h327v-748q0 -184 -130 -314t-314 -130t-314 130t-130 314z" />
<glyph unicode="&#xdc;" d="M246 1415q0 45 31.5 77t77 32t77 -32t31.5 -77t-31.5 -76.5t-77 -31.5t-77 31.5t-31.5 76.5zM555 1415q0 45 32 77t77 32t76.5 -32t31.5 -77t-31.5 -76.5t-76.5 -31.5t-77 31.5t-32 76.5zM66 403v748h327v-754q0 -47 35 -81.5t82 -34.5t82 34.5t35 81.5v754h327v-748 q0 -184 -130 -314t-314 -130t-314 130t-130 314z" />
<glyph unicode="&#xdd;" horiz-adv-x="1122" d="M463 1307l74 229h274l-147 -229h-201zM27 1151h385l176 -381l164 381h348l-336 -725v-426h-328v426z" />
<glyph unicode="&#xdf;" horiz-adv-x="1034" d="M61 0v844q0 170 117 263t334 93q182 0 311 -85t129 -236q0 -78 -44 -144.5t-101 -95.5q80 -41 134 -117t54 -170q0 -170 -120.5 -268t-290.5 -98q-66 0 -166 39v266q88 -18 100 -19q55 0 99.5 31t44.5 80q0 51 -47.5 78.5t-106.5 27.5h-90v256h76q119 2 118 107 q0 41 -35.5 63.5t-82.5 22.5q-43 0 -78 -28.5t-35 -65.5v-844h-320z" />
<glyph unicode="&#xe0;" horiz-adv-x="970" d="M18 383q0 178 126 304t305 126h440v-813h-316v197l-41 -191q-55 -41 -151 -41q-156 0 -259.5 125t-103.5 293zM324 1206h256l67 -225h-186zM350 383q0 -68 39 -120t100 -52q49 0 84 41v303h-84q-63 0 -101 -51t-38 -121z" />
<glyph unicode="&#xe1;" horiz-adv-x="970" d="M18 383q0 178 126 304t305 126h440v-813h-316v197l-41 -191q-55 -41 -151 -41q-156 0 -259.5 125t-103.5 293zM350 383q0 -68 39 -120t100 -52q49 0 84 41v303h-84q-63 0 -101 -51t-38 -121zM387 979l74 229h274l-147 -229h-201z" />
<glyph unicode="&#xe2;" horiz-adv-x="970" d="M18 383q0 178 126 304t305 126h440v-813h-316v197l-41 -191q-55 -41 -151 -41q-156 0 -259.5 125t-103.5 293zM238 971l301 266l301 -266h-244l-57 49l-58 -49h-243zM350 383q0 -68 39 -120t100 -52q49 0 84 41v303h-84q-63 0 -101 -51t-38 -121z" />
<glyph unicode="&#xe3;" horiz-adv-x="970" d="M18 383q0 178 126 304t305 126h440v-813h-316v197l-41 -191q-55 -41 -151 -41q-156 0 -259.5 125t-103.5 293zM260 985q0 82 47 147.5t133 65.5q29 0 72 -20.5t72 -20.5q41 0 43 21h159q0 -78 -43 -141.5t-114 -63.5q-37 0 -95.5 20.5t-68.5 20.5q-41 0 -41 -29h-164z M350 383q0 -68 39 -120t100 -52q49 0 84 41v303h-84q-63 0 -101 -51t-38 -121z" />
<glyph unicode="&#xe4;" horiz-adv-x="970" d="M18 383q0 178 126 304t305 126h440v-813h-316v197l-41 -191q-55 -41 -151 -41q-156 0 -259.5 125t-103.5 293zM287 1102q0 45 31.5 76.5t76.5 31.5t77 -31.5t32 -76.5t-32 -77t-77 -32t-76.5 32t-31.5 77zM350 383q0 -68 39 -120t100 -52q49 0 84 41v303h-84 q-63 0 -101 -51t-38 -121zM596 1102q0 45 31.5 76.5t77 31.5t77 -31.5t31.5 -76.5t-31.5 -77t-77 -32t-77 32t-31.5 77z" />
<glyph unicode="&#xe6;" horiz-adv-x="1634" d="M18 383q0 178 126 304t305 126h440v-96q125 125 305 125q160 0 279.5 -93.5t119.5 -240.5q0 -98 -82 -217h-335q94 78 94 174q0 41 -24.5 72.5t-63.5 31.5q-49 0 -76 -46t-27 -105q0 -63 41 -109.5t101 -46.5h358v-262q-86 -18 -266 -18q-283 0 -424 116v-98h-316v197 l-41 -191q-55 -41 -151 -41q-156 0 -259.5 125t-103.5 293zM350 383q0 -68 39 -120t100 -52q49 0 84 41v303h-84q-63 0 -101 -51t-38 -121z" />
<glyph unicode="&#xe7;" horiz-adv-x="987" d="M41 407.5q0 186.5 137 315.5t326 129q174 0 301 -119t139 -291h-321q-6 57 -37 97.5t-82 40.5q-61 0 -100 -52.5t-39 -120t38.5 -119.5t100.5 -52q55 0 87 48t34 113h321q-4 -180 -133 -307t-309 -127q-188 0 -325.5 129t-137.5 315.5zM383 -258q0 68 48 116t115.5 48 t116 -48t48.5 -116q0 -39 -14.5 -85t-44 -94t-86 -80t-128.5 -32l66 154q-121 37 -121 137z" />
<glyph unicode="&#xe8;" horiz-adv-x="921" d="M41 403q0 182 128 310.5t308 128.5q160 0 280 -93.5t120 -240.5q0 -98 -82 -217h-336q94 78 94 174q0 41 -24.5 72.5t-63.5 31.5q-49 0 -76 -46t-27 -105q0 -63 41 -109.5t101 -46.5h358v-262q-86 -18 -266 -18q-274 0 -414.5 108t-140.5 313zM283 1206h274l74 -229h-201 z" />
<glyph unicode="&#xe9;" horiz-adv-x="921" d="M41 403q0 182 128 310.5t308 128.5q160 0 280 -93.5t120 -240.5q0 -98 -82 -217h-336q94 78 94 174q0 41 -24.5 72.5t-63.5 31.5q-49 0 -76 -46t-27 -105q0 -63 41 -109.5t101 -46.5h358v-262q-86 -18 -266 -18q-274 0 -414.5 108t-140.5 313zM344 981l74 229h274 l-147 -229h-201z" />
<glyph unicode="&#xea;" horiz-adv-x="921" d="M41 403q0 182 128 310.5t308 128.5q160 0 280 -93.5t120 -240.5q0 -98 -82 -217h-336q94 78 94 174q0 41 -24.5 72.5t-63.5 31.5q-49 0 -76 -46t-27 -105q0 -63 41 -109.5t101 -46.5h358v-262q-86 -18 -266 -18q-274 0 -414.5 108t-140.5 313zM195 961l301 266l301 -266 h-244l-57 49l-58 -49h-243z" />
<glyph unicode="&#xeb;" horiz-adv-x="921" d="M41 403q0 182 128 310.5t308 128.5q160 0 280 -93.5t120 -240.5q0 -98 -82 -217h-336q94 78 94 174q0 41 -24.5 72.5t-63.5 31.5q-49 0 -76 -46t-27 -105q0 -63 41 -109.5t101 -46.5h358v-262q-86 -18 -266 -18q-274 0 -414.5 108t-140.5 313zM248 1092q0 45 31.5 76.5 t76.5 31.5t77 -31.5t32 -76.5t-32 -77t-77 -32t-76.5 32t-31.5 77zM557 1092q0 45 32 76.5t77 31.5t76.5 -31.5t31.5 -76.5t-31.5 -77t-76.5 -32t-77 32t-32 77z" />
<glyph unicode="&#xec;" horiz-adv-x="1024" />
<glyph unicode="&#xed;" horiz-adv-x="483" d="M63 967l74 229h275l-148 -229h-201zM82 0v811h319v-811h-319z" />
<glyph unicode="&#xee;" horiz-adv-x="483" d="M-70 975l301 266l301 -266h-243l-58 49l-57 -49h-244zM82 0v811h319v-811h-319z" />
<glyph unicode="&#xef;" horiz-adv-x="483" d="M-18 1096q0 45 31.5 76.5t76.5 31.5t77 -31.5t32 -76.5t-32 -77t-77 -32t-76.5 32t-31.5 77zM82 0v811h319v-811h-319zM291 1096q0 45 31.5 76.5t76.5 31.5t77 -31.5t32 -76.5t-32 -77t-77 -32t-76.5 32t-31.5 77z" />
<glyph unicode="&#xf1;" horiz-adv-x="991" d="M82 0v813h287l24 -233l23 227q82 29 180 29q137 0 225 -79t88 -194v-563h-319v471q0 39 -27.5 66.5t-66.5 27.5t-67 -27.5t-28 -66.5v-471h-319zM193 987q0 82 47 147.5t133 65.5q29 0 71.5 -20.5t71.5 -20.5q41 0 43 21h160q0 -78 -43 -141.5t-115 -63.5q-37 0 -95 20.5 t-69 20.5q-41 0 -41 -29h-163z" />
<glyph unicode="&#xf2;" d="M47 407.5q0 186.5 137.5 315.5t325.5 129t325.5 -129t137.5 -315.5t-137.5 -315.5t-325.5 -129t-325.5 129t-137.5 315.5zM311 1198h275l73 -229h-200zM371 407.5q0 -67.5 39 -119.5t100 -52t100 52t39 119.5t-39 120t-100 52.5t-100 -52.5t-39 -120z" />
<glyph unicode="&#xf3;" d="M47 407.5q0 186.5 137.5 315.5t325.5 129t325.5 -129t137.5 -315.5t-137.5 -315.5t-325.5 -129t-325.5 129t-137.5 315.5zM371 407.5q0 -67.5 39 -119.5t100 -52t100 52t39 119.5t-39 120t-100 52.5t-100 -52.5t-39 -120zM385 967l74 229h274l-147 -229h-201z" />
<glyph unicode="&#xf4;" d="M47 407.5q0 186.5 137.5 315.5t325.5 129t325.5 -129t137.5 -315.5t-137.5 -315.5t-325.5 -129t-325.5 129t-137.5 315.5zM203 961l301 266l301 -266h-244l-57 49l-58 -49h-243zM371 407.5q0 -67.5 39 -119.5t100 -52t100 52t39 119.5t-39 120t-100 52.5t-100 -52.5 t-39 -120z" />
<glyph unicode="&#xf5;" d="M47 407.5q0 186.5 137.5 315.5t325.5 129t325.5 -129t137.5 -315.5t-137.5 -315.5t-325.5 -129t-325.5 129t-137.5 315.5zM248 991q0 82 47 147.5t133 65.5q29 0 72 -20.5t71 -20.5q41 0 43 21h160q0 -78 -43 -141.5t-115 -63.5q-37 0 -95 20.5t-68 20.5q-41 0 -41 -29 h-164zM371 407.5q0 -67.5 39 -119.5t100 -52t100 52t39 119.5t-39 120t-100 52.5t-100 -52.5t-39 -120z" />
<glyph unicode="&#xf6;" d="M47 407.5q0 186.5 137.5 315.5t325.5 129t325.5 -129t137.5 -315.5t-137.5 -315.5t-325.5 -129t-325.5 129t-137.5 315.5zM246 1096q0 45 31.5 76.5t76.5 31.5t77 -31.5t32 -76.5t-32 -77t-77 -32t-76.5 32t-31.5 77zM371 407.5q0 -67.5 39 -119.5t100 -52t100 52 t39 119.5t-39 120t-100 52.5t-100 -52.5t-39 -120zM555 1096q0 45 31.5 76.5t77 31.5t77 -31.5t31.5 -76.5t-31.5 -77t-77 -32t-77 32t-31.5 77z" />
<glyph unicode="&#xf7;" horiz-adv-x="1024" d="M90 428v201h844v-201h-844zM358 186.5q0 65.5 43 109.5t111 44t111 -44t43 -109.5t-43 -109.5t-111 -44t-111 44t-43 109.5zM358 870.5q0 65.5 43 109.5t111 44t111 -44t43 -109.5t-43 -109.5t-111 -44t-111 44t-43 109.5z" />
<glyph unicode="&#xf8;" d="M47 408q0 186 137.5 315t325.5 129q145 0 266 -82l68 74l90 -82l-66 -72q104 -121 105 -282q0 -186 -137.5 -315.5t-325.5 -129.5q-133 0 -246 68l-59 -64l-90 82l53 60q-121 125 -121 299zM371 408q0 -43 10 -68l199 217q-33 23 -70 23q-61 0 -100 -52t-39 -120z M461 246q25 -10 49 -10q61 0 100 52t39 120q0 14 -4 38z" />
<glyph unicode="&#xf9;" horiz-adv-x="966" d="M70 250v563h319v-471q0 -39 27.5 -66.5t66.5 -27.5t67 27.5t28 66.5v471h319v-813h-293l-18 233l-29 -227q-82 -29 -174 -29q-137 0 -225 79t-88 194zM313 1212h275l74 -229h-201z" />
<glyph unicode="&#xfa;" horiz-adv-x="966" d="M70 250v563h319v-471q0 -39 27.5 -66.5t66.5 -27.5t67 27.5t28 66.5v471h319v-813h-293l-18 233l-29 -227q-82 -29 -174 -29q-137 0 -225 79t-88 194zM332 971l74 229h274l-148 -229h-200z" />
<glyph unicode="&#xfb;" horiz-adv-x="966" d="M70 250v563h319v-471q0 -39 27.5 -66.5t66.5 -27.5t67 27.5t28 66.5v471h319v-813h-293l-18 233l-29 -227q-82 -29 -174 -29q-137 0 -225 79t-88 194zM211 961l301 266l301 -266h-244l-57 49l-57 -49h-244z" />
<glyph unicode="&#xfc;" horiz-adv-x="966" d="M70 250v563h319v-471q0 -39 27.5 -66.5t66.5 -27.5t67 27.5t28 66.5v471h319v-813h-293l-18 233l-29 -227q-82 -29 -174 -29q-137 0 -225 79t-88 194zM248 1092q0 45 31.5 76.5t76.5 31.5t77 -31.5t32 -76.5t-32 -77t-77 -32t-76.5 32t-31.5 77zM557 1092q0 45 32 76.5 t77 31.5t76.5 -31.5t31.5 -76.5t-31.5 -77t-76.5 -32t-77 32t-32 77z" />
<glyph unicode="&#xfd;" horiz-adv-x="929" d="M364 975l74 229h274l-147 -229h-201zM29 813h331l123 -405l97 405h321l-272 -782q-25 -70 -39.5 -107t-48 -97t-67.5 -92t-89 -57.5t-121 -25.5h-131v272h49q49 0 83 39t34 90q0 35 -20 92z" />
<glyph unicode="&#xff;" horiz-adv-x="929" d="M201 1083q0 45 31.5 77t77 32t77 -32t31.5 -77t-31.5 -76.5t-77 -31.5t-77 31.5t-31.5 76.5zM510 1083q0 45 32 77t77 32t76.5 -32t31.5 -77t-31.5 -76.5t-76.5 -31.5t-77 31.5t-32 76.5zM29 813h331l123 -405l97 405h321l-272 -782q-25 -70 -39.5 -107t-48 -97 t-67.5 -92t-89 -57.5t-121 -25.5h-131v272h49q49 0 83 39t34 90q0 35 -20 92z" />
<glyph unicode="&#x152;" horiz-adv-x="1599" d="M41 571.5q0 247.5 159.5 430t395.5 182.5q123 0 233 -56v23h674l45 -274h-391v-160h313v-271h-313v-163h422l-68 -283h-682v14q-111 -55 -233 -55q-236 0 -395.5 182.5t-159.5 430zM373 571.5q0 -122.5 59.5 -216t163.5 -93.5t163.5 93.5t59.5 216t-59.5 216t-163.5 93.5 t-163.5 -93.5t-59.5 -216z" />
<glyph unicode="&#x153;" horiz-adv-x="1546" d="M47 407.5q0 186.5 137.5 315.5t325.5 129q174 0 305 -111q121 109 287 109q160 0 279.5 -93t119.5 -241q0 -98 -82 -217h-336q94 78 95 174q0 41 -25 73t-63 32q-49 0 -76 -46.5t-27 -105.5q0 -63 41 -109.5t100 -46.5h359v-262q-86 -18 -266 -18q-252 0 -394 94 q-133 -121 -317 -121q-188 0 -325.5 129t-137.5 315.5zM371 407.5q0 -67.5 39 -119.5t100 -52t100 52t39 119.5t-39 120t-100 52.5t-100 -52.5t-39 -120z" />
<glyph unicode="&#x178;" horiz-adv-x="1122" d="M299 1415q0 45 31.5 77t77 32t77 -32t31.5 -77t-31.5 -76.5t-77 -31.5t-77 31.5t-31.5 76.5zM608 1415q0 45 32 77t77 32t76.5 -32t31.5 -77t-31.5 -76.5t-76.5 -31.5t-77 31.5t-32 76.5zM27 1151h385l176 -381l164 381h348l-336 -725v-426h-328v426z" />
<glyph unicode="&#x2c6;" horiz-adv-x="716" d="M61 885l301 266l302 -266h-244l-58 49l-57 -49h-244z" />
<glyph unicode="&#x2dc;" horiz-adv-x="796" d="M135 930q0 82 47 147.5t133 65.5q29 0 72 -20.5t72 -20.5q41 0 43 20h160q0 -78 -43.5 -141t-114.5 -63q-37 0 -95.5 20t-68.5 20q-41 0 -41 -28h-164z" />
<glyph unicode="&#x2000;" horiz-adv-x="786" />
<glyph unicode="&#x2001;" horiz-adv-x="1572" />
<glyph unicode="&#x2002;" horiz-adv-x="786" />
<glyph unicode="&#x2003;" horiz-adv-x="1572" />
<glyph unicode="&#x2004;" horiz-adv-x="524" />
<glyph unicode="&#x2005;" horiz-adv-x="393" />
<glyph unicode="&#x2006;" horiz-adv-x="262" />
<glyph unicode="&#x2007;" horiz-adv-x="262" />
<glyph unicode="&#x2008;" horiz-adv-x="196" />
<glyph unicode="&#x2009;" horiz-adv-x="313" />
<glyph unicode="&#x200a;" horiz-adv-x="86" />
<glyph unicode="&#x2010;" horiz-adv-x="696" d="M154 319v246h389v-246h-389z" />
<glyph unicode="&#x2011;" horiz-adv-x="696" d="M154 319v246h389v-246h-389z" />
<glyph unicode="&#x2012;" horiz-adv-x="696" d="M154 319v246h389v-246h-389z" />
<glyph unicode="&#x2013;" horiz-adv-x="1024" d="M154 319v246h716v-246h-716z" />
<glyph unicode="&#x2014;" horiz-adv-x="2048" d="M154 319v246h1740v-246h-1740z" />
<glyph unicode="&#x2018;" horiz-adv-x="446" d="M49 1151h275l73 -229h-200z" />
<glyph unicode="&#x2019;" horiz-adv-x="389" d="M68 983v242h254v-242l-78 -233h-99z" />
<glyph unicode="&#x201c;" horiz-adv-x="864" d="M139 983v242h254v-242l-78 -233h-100zM471 983v242h254v-242l-78 -233h-98z" />
<glyph unicode="&#x201d;" horiz-adv-x="864" d="M139 983v242h254v-242l-78 -233h-100zM471 983v242h254v-242l-78 -233h-98z" />
<glyph unicode="&#x2026;" horiz-adv-x="1474" d="M1057 172q0 70 51 121t120.5 51t121 -51t51.5 -121t-51.5 -121t-121 -51t-120.5 51t-51 121zM566 172q0 70 51 121t120.5 51t121 -51t51.5 -121t-51.5 -121t-121 -51t-120.5 51t-51 121zM74 172q0 70 51 121t120.5 51t121 -51t51.5 -121t-51.5 -121t-121 -51t-120.5 51 t-51 121z" />
<glyph unicode="&#x202f;" horiz-adv-x="313" />
<glyph unicode="&#x2039;" horiz-adv-x="622" d="M78 504l188 289h266l-176 -289l176 -289h-266z" />
<glyph unicode="&#x203a;" horiz-adv-x="622" d="M78 215l176 289l-176 289h266l188 -289l-188 -289h-266z" />
<glyph unicode="&#x205f;" horiz-adv-x="393" />
<glyph unicode="&#x2122;" horiz-adv-x="2260" d="M938 0v1151h477l151 -551l152 551h477v-1151h-324v684l-184 -684h-221l-205 684v-684h-323zM43 877l45 274h696l45 -274h-221v-877h-336v877h-229z" />
<glyph unicode="&#xe000;" horiz-adv-x="815" d="M0 815h815v-815h-815v815z" />
<glyph unicode="&#xfb01;" horiz-adv-x="1044" d="M627 1015.5q0 71.5 52 124t123.5 52.5t124 -52.5t52.5 -124t-52.5 -123.5t-124 -52t-123.5 52t-52 123.5zM643 0v811h319v-811h-319zM41 0v852q0 84 27.5 157.5t106.5 130t198 56.5q66 0 147 -31v-237q-43 25 -77.5 24.5t-58.5 -24t-24 -58.5v-57h148v-227h-148v-586 h-319z" />
<glyph unicode="&#xfb02;" horiz-adv-x="1032" d="M637 0v1151h319v-1151h-319zM41 0v852q0 84 27.5 157.5t106.5 130t198 56.5q66 0 147 -31v-237q-43 25 -77.5 24.5t-58.5 -24t-24 -58.5v-57h148v-227h-148v-586h-319z" />
<glyph unicode="&#xfb03;" horiz-adv-x="1605" d="M1188 1015.5q0 71.5 52 124t123.5 52.5t124 -52.5t52.5 -124t-52.5 -123.5t-124 -52t-123.5 52t-52 123.5zM1204 0v811h319v-811h-319zM602 0v852q0 84 27.5 157.5t106.5 130t198 56.5q66 0 147 -31v-237q-43 25 -77.5 24.5t-58.5 -24t-24 -58.5v-57h148v-227h-148v-586 h-319zM41 0v852q0 84 27.5 157.5t106.5 130t198 56.5q66 0 147 -31v-237q-43 25 -77.5 24.5t-58.5 -24t-24 -58.5v-57h148v-227h-148v-586h-319z" />
<glyph unicode="&#xfb04;" horiz-adv-x="1593" d="M1198 0v1151h319v-1151h-319zM602 0v852q0 84 27.5 157.5t106.5 130t198 56.5q66 0 147 -31v-237q-43 25 -77.5 24.5t-58.5 -24t-24 -58.5v-57h148v-227h-148v-586h-319zM41 0v852q0 84 27.5 157.5t106.5 130t198 56.5q66 0 147 -31v-237q-43 25 -77.5 24.5t-58.5 -24 t-24 -58.5v-57h148v-227h-148v-586h-319z" />
</font>
</defs>
</svg>
